<?xml version="1.0" encoding="utf-8"?>
<!-- Generator: Adobe Illustrator 28.0.0, SVG Export Plug-In . SVG Version: 6.00 Build 0)  -->
<svg version="1.1" id="Layer_2_00000067211995879701327170000012933655794555616189_"
	 xmlns="http://www.w3.org/2000/svg" xmlns:xlink="http://www.w3.org/1999/xlink" x="0px" y="0px" viewBox="0 0 410.4 167.9"
	 style="enable-background:new 0 0 410.4 167.9;" xml:space="preserve">
<style type="text/css">
	.st0{fill:#483837;stroke:#483837;stroke-width:40;stroke-linejoin:round;}
	.st1{fill:#493838;stroke:#493838;stroke-width:40;stroke-linejoin:round;}
	.st2{fill:#41855C;stroke:#41855C;stroke-width:20;stroke-linejoin:round;}
	.st3{fill:#FFFFFF;stroke:#41855C;stroke-width:20;stroke-linecap:round;stroke-linejoin:round;}
	.st4{fill:#D3D79F;}
	.st5{enable-background:new    ;}
	.st6{fill:#493838;}
	.st7{fill:#41855C;}
	.st8{fill:#483837;}
</style>
<g id="LOGO1_00000097468104760266951990000012497380047945355661_">
	<polygon class="st0" points="122.6,95.8 131,111.2 146.4,119.6 131,128.1 122.6,143.5 114.1,128.1 98.8,119.6 114.1,111.2 	"/>
	<g id="OUTER_00000130615105863174671270000016118004540484390332_">
		<g>
			<path class="st1" d="M54.8,78.6c-2.7,0-5.2-0.4-7.4-1c-2.3-0.7-4.2-1.8-5.8-3.2C40,73,38.8,71.2,37.9,69
				c-0.9-2.2-1.3-4.6-1.3-7.6V33.8h15.2v26.9c0,1.2,0.3,2.2,0.8,2.8c0.4,0.6,1.2,0.9,2.4,0.9s1.9-0.3,2.4-0.9s0.8-1.5,0.8-2.8V33.8
				h15.3v27.5c0,2.8-0.5,5.4-1.3,7.6c-0.9,2.2-2.1,4-3.8,5.4c-1.6,1.4-3.6,2.5-5.8,3.2C60,78.2,57.4,78.6,54.8,78.6L54.8,78.6z"/>
			<path class="st1" d="M97.4,78.6c-3.1,0-6.1-0.6-8.9-1.8c-2.7-1.1-5.2-2.8-7.3-4.8c-2.1-2-3.7-4.5-4.9-7.3c-1.2-2.7-1.8-5.8-1.8-9
				s0.6-6.1,1.7-8.9c1.1-2.7,2.7-5.2,4.6-7.3s4.4-3.7,7.1-4.9s5.7-1.8,8.8-1.8c2.4,0,4.6,0.3,6.4,0.8s3.3,1,4.5,1.6
				c1.4,0.7,2.7,1.5,3.6,2.4l0.7,0.6l-8.6,12.3l-0.8-0.7c-0.7-0.6-1.5-1-2.5-1.3S97.9,48,97,48c-1,0-2.1,0.2-2.9,0.6
				c-0.9,0.4-1.7,0.9-2.3,1.6c-0.7,0.7-1.1,1.5-1.5,2.5c-0.4,0.9-0.6,2.1-0.6,3.2c0,1.1,0.2,2.2,0.7,3.1c0.4,0.9,0.9,1.8,1.7,2.5
				c0.7,0.7,1.5,1.2,2.5,1.6c0.9,0.4,2,0.6,3.1,0.6c1.2,0,2.5-0.3,3.5-0.9c0.5-0.2,0.9-0.5,1.2-0.8h-2.5V51.5h17.9v15.1l-0.1,0.2
				c-1,1.8-2.2,3.4-3.6,4.8s-2.9,2.7-4.6,3.8c-1.7,1-3.6,1.9-5.6,2.5C101.6,78.3,99.5,78.6,97.4,78.6L97.4,78.6z"/>
			<polygon class="st1" points="119.3,77.5 119.3,33.8 135,33.8 135,64.7 146.6,64.7 146.6,77.5 			"/>
			<polygon class="st1" points="149.2,77.5 149.2,58.9 135.7,33.8 152.5,33.8 156.9,41.7 161.1,33.8 178,33.8 164.4,58.9 
				164.4,77.5 			"/>
			<path class="st1" d="M64.3,140.3V96.7h17.3c2.2,0,4.2,0.3,6,0.8s3.4,1.3,4.7,2.3c1.3,1,2.4,2.3,3.1,3.8s1.1,3.3,1.1,5.3
				c0,1.4-0.2,2.7-0.6,3.7s-0.8,1.8-1.1,2.5c-0.3,0.5-0.6,0.9-0.9,1.3c0.7,0.5,1.2,1.1,1.8,1.8c0.7,0.9,1.3,2,1.9,3.2
				c0.6,1.3,0.9,2.9,0.9,4.8c0,2.1-0.4,4.1-1.1,5.8c-0.8,1.7-1.9,3.2-3.3,4.5c-1.4,1.2-3.1,2.2-5.1,2.8c-2,0.7-4.2,0.9-6.6,0.9
				C82.3,140.3,64.3,140.3,64.3,140.3z M79.6,128.6c3.4,0,3.9-1.4,3.9-2.7c0-1.3-0.5-2.7-3.9-2.7H79v5.5h0.6V128.6z M79.6,112.3
				c2,0,2.3-0.9,2.3-2c0-1-0.3-2-2.3-2H79v4H79.6z"/>
			<polygon class="st1" points="149.2,140.3 149.2,121.6 135.7,96.7 152.5,96.7 156.9,104.6 161.1,96.7 178,96.7 164.4,121.6 
				164.4,140.3 			"/>
		</g>
	</g>
	<polygon class="st2" points="122.6,95.6 131,111.1 146.4,119.5 131,127.9 122.6,143.3 114.1,127.9 98.8,119.5 114.1,111.1 	"/>
	<g id="MIDDLE_00000013175627777437010620000017470843643410182311_">
		<g>
			<path class="st3" d="M55,78.6c-2.7,0-5.2-0.4-7.4-1c-2.3-0.7-4.2-1.8-5.8-3.2S39,71.2,38.1,69s-1.3-4.6-1.3-7.6V33.8H52v26.9
				c0,1.2,0.3,2.2,0.8,2.8c0.4,0.6,1.2,0.9,2.4,0.9c1.1,0,1.9-0.3,2.4-0.9s0.8-1.5,0.8-2.8V33.8h15.3v27.5c0,2.8-0.5,5.4-1.3,7.6
				c-0.9,2.2-2.1,4-3.8,5.4c-1.6,1.4-3.6,2.5-5.8,3.2C60.2,78.2,57.7,78.6,55,78.6L55,78.6z"/>
			<path class="st3" d="M97.6,78.6c-3.1,0-6.1-0.6-8.9-1.8C86,75.7,83.5,74,81.4,72s-3.7-4.5-4.9-7.3c-1.2-2.7-1.8-5.8-1.8-9
				s0.6-6.1,1.7-8.9c1.1-2.7,2.7-5.2,4.6-7.3s4.4-3.7,7.1-4.9s5.7-1.8,8.8-1.8c2.4,0,4.6,0.3,6.4,0.8s3.3,1,4.5,1.6
				c1.4,0.7,2.7,1.5,3.6,2.4l0.7,0.6l-8.6,12.3l-0.8-0.7c-0.7-0.6-1.5-1-2.5-1.3s-2.1-0.5-3-0.5c-1,0-2.1,0.2-2.9,0.6
				c-0.9,0.4-1.7,0.9-2.3,1.6c-0.7,0.7-1.1,1.5-1.5,2.5c-0.4,0.9-0.6,2.1-0.6,3.2c0,1.1,0.2,2.2,0.7,3.1s0.9,1.8,1.7,2.5
				c0.5,0.8,1.3,1.3,2.3,1.7c0.9,0.4,2,0.6,3.1,0.6c1.2,0,2.5-0.3,3.5-0.9c0.5-0.2,0.9-0.5,1.2-0.8h-2.5V51.5h17.9v15.1l-0.1,0.2
				c-1,1.8-2.2,3.4-3.6,4.8s-2.9,2.7-4.6,3.8c-1.7,1-3.6,1.9-5.6,2.5C101.8,78.3,99.7,78.6,97.6,78.6L97.6,78.6z"/>
			<polygon class="st3" points="119.4,77.5 119.4,33.8 135.2,33.8 135.2,64.7 146.8,64.7 146.8,77.5 			"/>
			<polygon class="st3" points="149.4,77.5 149.4,58.9 135.8,33.8 152.7,33.8 157.1,41.7 161.3,33.8 178.2,33.8 164.6,58.9 
				164.6,77.5 			"/>
			<path class="st3" d="M64.5,140.3V96.7h17.3c2.2,0,4.2,0.3,6,0.8s3.4,1.3,4.7,2.3c1.3,1,2.4,2.3,3.1,3.8s1.1,3.3,1.1,5.3
				c0,1.4-0.2,2.7-0.6,3.7s-0.8,1.8-1.1,2.5c-0.3,0.5-0.6,0.9-0.9,1.3c0.7,0.5,1.2,1.1,1.8,1.8c0.7,0.9,1.3,2,1.9,3.2
				c0.6,1.3,0.9,2.9,0.9,4.8c0,2.1-0.4,4.1-1.1,5.8c-0.8,1.7-1.9,3.2-3.3,4.5c-1.4,1.2-3.1,2.2-5.1,2.8c-2,0.7-4.2,0.9-6.6,0.9
				C82.5,140.3,64.5,140.3,64.5,140.3z M79.8,128.6c3.4,0,3.9-1.4,3.9-2.7c0-1.3-0.5-2.7-3.9-2.7h-0.6v5.5h0.6V128.6z M79.8,112.3
				c2,0,2.3-0.9,2.3-2c0-1-0.3-2-2.3-2h-0.6v4H79.8z"/>
			<polygon class="st3" points="149.4,140.3 149.4,121.6 135.8,96.7 152.7,96.7 157.1,104.6 161.3,96.7 178.2,96.7 164.6,121.6 
				164.6,140.3 			"/>
		</g>
	</g>
	<polygon class="st4" points="122.6,95.8 131,111.2 146.4,119.6 131,128.1 122.6,143.5 114.1,128.1 98.8,119.6 114.1,111.2 	"/>
	<g id="OUTER-2_00000167378520043908413500000004250371040026355642_">
		<g>
			<path class="st4" d="M55.2,78.6c-2.7,0-5.2-0.4-7.4-1c-2.3-0.7-4.2-1.8-5.8-3.2c-1.6-1.4-2.8-3.2-3.7-5.4
				c-0.9-2.2-1.3-4.6-1.3-7.6V33.8h15.2v26.9c0,1.2,0.3,2.2,0.8,2.8c0.4,0.6,1.2,0.9,2.4,0.9c1.1,0,1.9-0.3,2.4-0.9s0.8-1.5,0.8-2.8
				V33.8h15.3v27.5c0,2.8-0.5,5.4-1.3,7.6c-0.9,2.2-2.1,4-3.8,5.4c-1.6,1.4-3.6,2.5-5.8,3.2C60.4,78.2,57.9,78.6,55.2,78.6
				L55.2,78.6z"/>
			<path class="st4" d="M97.8,78.6c-3.1,0-6.1-0.6-8.9-1.8c-2.7-1.1-5.2-2.8-7.3-4.8c-2.1-2-3.7-4.5-4.9-7.3c-1.2-2.7-1.8-5.8-1.8-9
				s0.6-6.1,1.7-8.9c1.1-2.7,2.7-5.2,4.6-7.3c2-2.1,4.4-3.7,7.1-4.9s5.7-1.8,8.8-1.8c2.4,0,4.6,0.3,6.4,0.8s3.3,1,4.5,1.6
				c1.4,0.7,2.7,1.5,3.6,2.4l0.7,0.6l-8.6,12.3l-0.8-0.7c-0.7-0.6-1.5-1-2.5-1.3c-1.1-0.3-2.1-0.5-3.1-0.5s-2.1,0.2-2.9,0.6
				c-0.9,0.4-1.7,0.9-2.3,1.6c-0.7,0.7-1.1,1.5-1.5,2.5s-0.6,1.9-0.6,3s0.2,2.2,0.7,3.1s0.9,1.8,1.7,2.5c0.7,0.7,1.5,1.2,2.5,1.6
				c0.9,0.4,2,0.6,3,0.6c1.2,0,2.5-0.3,3.5-0.9c0.5-0.2,0.9-0.5,1.2-0.8h-2.5V51.5H118v15.1l-0.1,0.2c-1,1.8-2.2,3.4-3.6,4.8
				s-2.9,2.7-4.6,3.8c-1.7,1-3.6,1.9-5.6,2.5C102,78.3,99.9,78.6,97.8,78.6L97.8,78.6z"/>
			<polygon class="st4" points="119.6,77.5 119.6,33.8 135.4,33.8 135.4,64.7 146.9,64.7 146.9,77.5 			"/>
			<polygon class="st4" points="149.6,77.5 149.6,58.9 136,33.8 152.9,33.8 157.3,41.7 161.4,33.8 178.4,33.8 164.8,58.9 
				164.8,77.5 			"/>
			<path class="st4" d="M64.6,140.3V96.7h17.3c2.2,0,4.2,0.3,6,0.8s3.4,1.3,4.7,2.3c1.3,1,2.4,2.3,3.1,3.8c0.8,1.5,1.1,3.3,1.1,5.3
				c0,1.4-0.2,2.7-0.6,3.7s-0.8,1.8-1.1,2.5c-0.3,0.5-0.6,0.9-0.9,1.3c0.7,0.5,1.2,1.1,1.8,1.8c0.7,0.9,1.3,2,1.9,3.2
				c0.6,1.3,0.9,2.9,0.9,4.8c0,2.1-0.4,4.1-1.1,5.8c-0.8,1.7-1.9,3.2-3.3,4.5c-1.4,1.2-3.1,2.2-5.1,2.8c-2,0.7-4.2,0.9-6.6,0.9
				L64.6,140.3L64.6,140.3z M80,128.6c3.4,0,3.9-1.4,3.9-2.7c0-1.3-0.5-2.7-3.9-2.7h-0.6v5.5H80V128.6z M80,112.3c2,0,2.3-0.9,2.3-2
				c0-1-0.3-2-2.3-2h-0.6v4H80z"/>
			<polygon class="st4" points="149.6,140.3 149.6,121.6 136,96.7 152.9,96.7 157.3,104.6 161.4,96.7 178.4,96.7 164.8,121.6 
				164.8,140.3 			"/>
		</g>
	</g>
</g>
<g>
	<g>
		<g class="st5">
			<g>
				<path class="st6" d="M359.6,126.2c2.3,1.2,4.6,2.5,6.8,3.7c2.3,1.2,4.6,2.5,6.8,3.7c0,5.3-4,10.2-8.9,10.9l-13.7-7.4
					C355.6,136.3,359.6,131.5,359.6,126.2z"/>
			</g>
			<g>
				<polygon class="st7" points="364.4,134.9 350.7,127.4 350.9,127.4 364.6,134.8 				"/>
			</g>
			<g>
				<polygon class="st7" points="364.2,134.9 350.5,127.4 350.7,127.4 364.4,134.9 				"/>
			</g>
			<g>
				<polygon class="st6" points="373.3,133.6 359.6,126.2 359.6,110.7 373.3,118.1 				"/>
			</g>
			<g>
				<polygon class="st6" points="373.3,118.1 359.6,110.7 370.7,87.3 384.4,94.8 				"/>
			</g>
			<g>
				<path class="st6" d="M371.1,86.3c4.6,2.5,9.1,5,13.7,7.4c-0.1,0.3-0.3,0.7-0.4,1l-13.7-7.4C370.9,87,371,86.7,371.1,86.3z"/>
			</g>
			<g>
				<path class="st6" d="M371.8,82.6c0-1.7-0.4-3.3-1.2-4.7c2.3,1.2,4.6,2.5,6.8,3.7c2.3,1.2,4.6,2.5,6.8,3.7c0.8,1.4,1.2,3,1.2,4.7
					c0,1.2-0.2,2.5-0.7,3.8c-4.6-2.5-9.1-5-13.7-7.4C371.6,85.1,371.8,83.8,371.8,82.6z"/>
			</g>
			<g>
				<polygon class="st6" points="350.8,146.4 337.2,138.9 350.7,137 364.4,144.5 				"/>
			</g>
			<g>
				<polygon class="st7" points="364.6,134.8 350.9,127.4 350.9,109.4 364.6,116.9 				"/>
			</g>
			<g>
				<polygon class="st4" points="376.6,91.3 362.9,83.8 363.1,83.8 376.7,91.2 				"/>
			</g>
			<g>
				<polygon class="st7" points="364.6,116.9 350.9,109.4 363.1,83.8 376.7,91.2 				"/>
			</g>
			<g>
				<path class="st6" d="M370.5,77.9c-0.7-1.2-1.7-2.2-2.9-2.8l13.7,7.4c1.2,0.6,2.2,1.6,2.9,2.8C379.7,82.8,375.1,80.3,370.5,77.9z
					"/>
			</g>
			<g>
				<polygon class="st4" points="376.4,91.3 362.7,83.9 362.9,83.8 376.6,91.3 				"/>
			</g>
			<g>
				<polygon class="st7" points="351,136.7 337.4,129.3 350.5,127.4 364.2,134.9 				"/>
			</g>
			<g>
				<path class="st6" d="M346.1,145.5l-13.7-7.4c1.4,0.7,3,1.1,4.8,0.8l13.7,7.4C349.1,146.6,347.5,146.3,346.1,145.5z"/>
			</g>
			<g>
				<path class="st6" d="M371.9,66l13.7,7.4c-1.1-0.6-2.3-1.1-3.5-1.4l-13.7-7.4C369.7,65,370.8,65.4,371.9,66z"/>
			</g>
			<g>
				<path class="st7" d="M367.7,75.1l13.7,7.4c-1.4-0.8-3-1.1-4.8-0.8l-13.7-7.4C364.6,74,366.3,74.3,367.7,75.1z"/>
			</g>
			<g>
				<path class="st7" d="M346.1,145.5l-13.7-7.4c-2.5-1.4-4.1-4.1-4.1-7.5L342,138C341.9,141.4,343.6,144.2,346.1,145.5z"/>
			</g>
			<g>
				<polygon class="st4" points="351,136.7 337.4,129.3 337.4,111.3 351.1,118.8 				"/>
			</g>
			<g>
				<path class="st6" d="M341.1,154.4l-13.7-7.4c-0.3-0.1-0.5-0.3-0.8-0.4c-2.5-1.6-4.6-3.9-5.9-6.9l13.7,7.4
					c1.3,2.9,3.4,5.3,5.9,6.9C340.6,154.1,340.9,154.2,341.1,154.4z"/>
			</g>
			<g>
				<path class="st6" d="M320.8,139.6c0.1-0.2,0.2-0.4,0.3-0.6l13.7,7.4c0,0,0,0,0,0c-4.5-2.5-9.1-4.9-13.6-7.4
					c4.5,2.5,9.1,4.9,13.6,7.4c-0.1,0.2-0.2,0.4-0.3,0.6C329.9,144.6,325.4,142.1,320.8,139.6c4.6,2.5,9.1,5,13.7,7.4c0,0,0,0,0,0
					C330.4,144.8,324.9,141.9,320.8,139.6z"/>
			</g>
			<g>
				<polygon class="st7" points="342,138 328.3,130.6 328.3,125.2 342,132.6 				"/>
			</g>
			<g>
				<polygon class="st6" points="334.8,146.5 321.1,139.1 327.4,125.9 341,133.3 				"/>
			</g>
			<g>
				<polygon class="st6" points="341,133.3 327.4,125.9 328.3,125.2 342,132.6 				"/>
			</g>
			<g>
				<polygon class="st7" points="368,82.9 354.3,75.4 362.9,74.2 376.6,81.7 				"/>
			</g>
			<g>
				<path class="st6" d="M368,82.9l-13.7-7.4c3.2-1.9,5.4-5.6,5.4-9.6l13.7,7.4C373.4,77.3,371.1,81,368,82.9z"/>
			</g>
			<g>
				<polygon class="st4" points="361.6,93.4 347.9,85.9 362.7,83.9 376.4,91.3 				"/>
			</g>
			<g>
				<polygon class="st4" points="358,101.5 344.3,94 347.9,85.9 361.6,93.4 				"/>
			</g>
			<g>
				<path class="st8" d="M320.8,139.6c2.3,1.3,11.4,6.2,13.7,7.4c-1.6,3-4.4,5.1-7.5,5.5c-4.5-2.5-9.1-4.9-13.6-7.4
					c4.5,2.5,9.1,4.9,13.6,7.4c0,0,0,0,0,0c0,0,0,0,0,0c-4.6-2.5-9.1-5-13.7-7.4c0,0,0,0,0,0C316.4,144.7,319.2,142.6,320.8,139.6z"
					/>
			</g>
			<g>
				<polygon class="st4" points="353.9,94.5 340.2,87 340.4,87 354,94.4 				"/>
			</g>
			<g>
				<polygon class="st4" points="353.7,94.5 340,87.1 340.2,87 353.9,94.5 				"/>
			</g>
			<g>
				<polygon class="st7" points="358,101.5 344.3,94 340.4,87 354,94.4 				"/>
			</g>
			<g>
				<polygon class="st7" points="364.5,74.5 350.8,67.1 351,67.1 364.7,74.5 				"/>
			</g>
			<g>
				<polygon class="st6" points="373.4,73.3 359.7,65.8 359.7,50.4 373.4,57.9 				"/>
			</g>
			<g>
				<polygon class="st7" points="364.3,74.6 350.6,67.1 350.8,67.1 364.5,74.5 				"/>
			</g>
			<g>
				<path class="st8" d="M308.5,144.3c1.4,0.8,3,1.1,4.7,0.8c4.6,2.5,9.1,5,13.7,7.4c-1.7,0.2-3.3-0.1-4.7-0.8
					C318.1,149.5,312.6,146.6,308.5,144.3z"/>
			</g>
			<g>
				<polygon class="st6" points="357.3,85.1 343.7,77.7 344.4,77.6 358.1,85 				"/>
			</g>
			<g>
				<path class="st7" d="M357.7,85.3L344,77.8c0.1-0.1,0.2-0.1,0.4-0.2l13.7,7.4C358,85.1,357.8,85.2,357.7,85.3z"/>
			</g>
			<g>
				<polygon class="st7" points="327,143.2 313.3,135.7 320.8,119.9 334.5,127.3 				"/>
			</g>
			<g>
				<polygon class="st7" points="334.5,127.3 320.8,119.9 334.5,109.8 348.2,117.2 				"/>
			</g>
			<g>
				<path class="st7" d="M357.3,85.1l-13.7-7.4c0.1,0,0.2,0.1,0.4,0.1l13.7,7.4C357.6,85.2,357.5,85.2,357.3,85.1z"/>
			</g>
			<g>
				<path class="st6" d="M358.1,85c-0.1,0.1-0.3,0.1-0.4,0.2c-0.1,0-0.2-0.1-0.4-0.1L358.1,85z"/>
			</g>
			<g>
				<polygon class="st6" points="373.4,57.9 359.7,50.4 370.8,26.9 384.5,34.3 				"/>
			</g>
			<g>
				<path class="st6" d="M370.8,26.9c0.7-1.5,1.1-3.2,1.1-4.8c4.6,2.5,9.1,5,13.7,7.4c0,1.6-0.4,3.2-1.1,4.8
					C380.4,32.1,374.9,29.1,370.8,26.9z"/>
			</g>
			<g>
				<path class="st6" d="M371.9,22.1C371.9,22.1,371.9,22.1,371.9,22.1c4.6,2.5,9.1,5,13.7,7.4c0,0,0,0,0,0
					C381,27.1,376.5,24.6,371.9,22.1z"/>
			</g>
			<g>
				<path class="st7" d="M322.2,151.8l-13.7-7.4c-1.2-0.7-2.3-1.7-3-3l13.7,7.4C319.9,150.1,321,151.1,322.2,151.8z"/>
			</g>
			<g>
				<path class="st6" d="M370.7,17.4c4.6,2.5,9.1,5,13.7,7.4c0.8,1.4,1.2,3,1.2,4.7c-4.6-2.5-9.1-5-13.7-7.4
					C371.9,20.4,371.5,18.8,370.7,17.4z"/>
			</g>
			<g>
				<polygon class="st7" points="319.2,148.7 305.5,141.3 304.3,139.1 318,146.5 				"/>
			</g>
			<g>
				<path class="st8" d="M313.2,153l-13.7-7.4c0.2-0.2,0.4-0.4,0.5-0.6c1.6-1.8,3-3.8,4.3-5.9l13.7,7.4c-1.2,2.1-2.7,4-4.3,5.9
					C313.6,152.6,313.4,152.8,313.2,153z"/>
			</g>
			<g>
				<path class="st8" d="M297.8,147.3c0.6-0.6,1.2-1.1,1.8-1.8l13.7,7.4c-0.6,0.6-1.2,1.2-1.8,1.8
					C307.3,152.5,301.9,149.5,297.8,147.3z"/>
			</g>
			<g>
				<path class="st8" d="M303.8,153.3c-2.5-1.3-4.5-3.4-6-6l13.7,7.4c1.5,2.6,3.5,4.7,6,6C313.3,158.5,307.9,155.5,303.8,153.3z"/>
			</g>
			<g>
				<polygon class="st7" points="364.7,74.5 351,67.1 351,49.2 364.7,56.6 				"/>
			</g>
			<g>
				<polygon class="st4" points="334.5,111.1 320.8,103.7 334.5,109.8 348.2,117.2 				"/>
			</g>
			<g>
				<polygon class="st4" points="376.7,30.8 363,23.4 363.2,23.4 376.9,30.8 				"/>
			</g>
			<g>
				<polygon class="st7" points="364.7,56.6 351,49.2 363.2,23.4 376.9,30.8 				"/>
			</g>
			<g>
				<polygon class="st4" points="376.5,30.9 362.8,23.4 363,23.4 376.7,30.8 				"/>
			</g>
			<g>
				<polygon class="st7" points="351.1,76.4 337.5,69 350.6,67.1 364.3,74.6 				"/>
			</g>
			<g>
				<polygon class="st4" points="351.1,118.8 337.4,111.3 325.3,89.1 339,96.6 				"/>
			</g>
			<g>
				<polygon class="st4" points="376.7,91.2 364.6,116.9 364.6,134.8 364.4,134.9 364.2,134.9 351,136.7 351.1,118.8 339,96.6 
					353.7,94.5 353.9,94.5 354,94.4 358,101.5 361.6,93.4 376.4,91.3 376.6,91.3 				"/>
			</g>
			<g>
				<polygon class="st4" points="339,96.6 325.3,89.1 340,87.1 353.7,94.5 				"/>
			</g>
			<g>
				<polygon class="st7" points="348.5,76.8 334.8,69.3 335,69.3 348.7,76.8 				"/>
			</g>
			<g>
				<polygon class="st4" points="327,143.2 313.3,135.7 305.8,122 319.5,129.5 				"/>
			</g>
			<g>
				<polygon class="st7" points="318,146.5 304.3,139.1 299.4,130.1 313.1,137.6 				"/>
			</g>
			<g>
				<path class="st6" d="M294,138.9c2.3-2.6,3.9-5.3,5.1-8.1l13.7,7.4c-1.2,2.9-2.8,5.5-5.1,8.1C303.2,143.9,298.6,141.4,294,138.9z
					"/>
			</g>
			<g>
				<path class="st6" d="M294,138.9c0.1,0,0.1,0.1,0.2,0.1c2.5,1.4,5.1,2.8,7.6,4.1c1.9,1.1,3.9,2.1,5.8,3.2c0,0-0.1,0.1-0.1,0.1
					l-13.7-7.4C294,139,294,139,294,138.9z"/>
			</g>
			<g>
				<path class="st6" d="M293.6,139.4c0.1-0.1,0.2-0.2,0.3-0.3l13.7,7.4c-0.1,0.1-0.2,0.2-0.3,0.3
					C302.7,144.3,298.2,141.8,293.6,139.4z"/>
			</g>
			<g>
				<polygon class="st4" points="351.1,76.4 337.5,69 337.5,51.1 351.2,58.5 				"/>
			</g>
			<g>
				<polygon class="st4" points="348.5,64.5 334.8,57 335,57 348.7,64.5 				"/>
			</g>
			<g>
				<polygon class="st7" points="348.7,76.8 335,69.3 335.1,57 348.8,64.4 				"/>
			</g>
			<g>
				<path class="st6" d="M293.6,139.4c4.6,2.5,9.1,5,13.7,7.4c-2.2,2.2-4.6,4-7.3,5.3l-13.7-7.4C289,143.4,291.4,141.6,293.6,139.4z
					"/>
			</g>
			<g>
				<polygon class="st6" points="332.3,88.7 318.6,81.2 321.7,80.8 335.4,88.2 				"/>
			</g>
			<g>
				<path class="st7" d="M333.5,89.6l-13.7-7.4c0.6-0.5,1.2-1,1.8-1.4l13.7,7.4C334.7,88.6,334.1,89.1,333.5,89.6z"/>
			</g>
			<g>
				<path class="st6" d="M333.5,89.6l-13.7-7.4c-0.4-0.4-0.8-0.7-1.2-1l13.7,7.4C332.7,88.9,333.1,89.3,333.5,89.6z"/>
			</g>
			<g>
				<path class="st6" d="M335.4,88.2c-0.7,0.4-1.3,0.9-1.8,1.4c-0.4-0.4-0.8-0.7-1.2-1L335.4,88.2z"/>
			</g>
			<g>
				<polygon class="st7" points="334.5,111.1 320.8,103.7 313.4,89.9 327.1,97.4 				"/>
			</g>
			<g>
				<polygon class="st4" points="319.5,113.2 305.8,105.8 313.4,89.9 327.1,97.4 				"/>
			</g>
			<g>
				<polygon class="st4" points="361.7,33 348,25.5 362.8,23.4 376.5,30.9 				"/>
			</g>
			<g>
				<polygon class="st4" points="358.1,41.1 344.4,33.6 348,25.5 361.7,33 				"/>
			</g>
			<g>
				<path class="st7" d="M301.9,140l-13.7-7.4c1.2-1.4,2.2-3,2.9-4.7l13.7,7.4C304.1,137,303.2,138.6,301.9,140z"/>
			</g>
			<g>
				<path class="st6" d="M286.3,144.6c2.3,1.2,11.5,6.2,13.7,7.4c-3.3,1.7-6.5,2.2-8.6,2.5l-13.7-7.4
					C279.9,146.9,283.1,146.3,286.3,144.6z"/>
			</g>
			<g>
				<path class="st7" d="M297.4,143.3l-13.7-7.4c1.8-0.8,3.3-2,4.5-3.3l13.7,7.4C300.7,141.3,299.1,142.5,297.4,143.3z"/>
			</g>
			<g>
				<path class="st6" d="M277.2,147.3c0.2,0,0.3-0.1,0.5-0.1l13.7,7.4c-0.2,0-0.3,0.1-0.5,0.1C286.3,152.2,281.8,149.7,277.2,147.3z
					"/>
			</g>
			<g>
				<polygon class="st4" points="338.5,65.9 324.8,58.4 334.8,57 348.5,64.5 				"/>
			</g>
			<g>
				<path class="st6" d="M277.2,147.3c0.1,0,0.1,0.1,0.2,0.1c0.1,0.1,0.2,0.1,0.3,0.2c0.1,0.1,0.2,0.1,0.3,0.2
					c0.1,0,0.1,0.1,0.2,0.1c0.1,0.1,0.2,0.1,0.4,0.2c0.5,0.2,0.9,0.5,1.4,0.7c3.7,2,7.3,4,11,6c-0.6,0.1-1.3,0.2-2,0.3
					c-4.5-2.5-9.1-4.9-13.6-7.4c4.5,2.5,9.1,4.9,13.6,7.4c0,0,0,0,0,0c0,0-0.1,0-0.1,0c-4.6-2.5-9.1-5-13.7-7.4c0,0,0.1,0,0.1,0
					C275.9,147.5,276.6,147.4,277.2,147.3z"/>
			</g>
			<g>
				<path class="st7" d="M304.8,135.3l-13.7-7.4c0.6-1.7,1-3.7,1-5.7c0-1.8-0.3-3.3-0.8-4.5l13.7,7.4c0.5,1.2,0.8,2.7,0.8,4.5
					C305.8,131.6,305.5,133.5,304.8,135.3z"/>
			</g>
			<g>
				<polygon class="st7" points="305.9,123.2 292.2,115.8 305.8,122 319.5,129.5 				"/>
			</g>
			<g>
				<polygon class="st4" points="327.1,97.4 334.5,111.1 348.2,117.2 334.5,127.3 327,143.2 319.5,129.5 305.9,123.2 319.5,113.2 
									"/>
			</g>
			<g>
				<polygon class="st4" points="305.9,123.2 292.2,115.8 305.8,105.8 319.5,113.2 				"/>
			</g>
			<g>
				<polygon class="st4" points="354,34 340.3,26.6 340.5,26.6 354.2,34 				"/>
			</g>
			<g>
				<polygon class="st4" points="353.8,34.1 340.1,26.6 340.3,26.6 354,34 				"/>
			</g>
			<g>
				<polygon class="st7" points="358.1,41.1 344.4,33.6 340.5,26.6 354.2,34 				"/>
			</g>
			<g>
				<polygon class="st7" points="312.5,107.3 298.8,99.9 299.3,99.5 312.9,107 				"/>
			</g>
			<g>
				<path class="st7" d="M291.5,145l-13.7-7.4c2.1-0.3,4.1-0.8,5.9-1.7l13.7,7.4C295.6,144.2,293.6,144.7,291.5,145z"/>
			</g>
			<g>
				<polygon class="st7" points="312.9,107 299.3,99.5 305.6,86.2 319.3,93.6 				"/>
			</g>
			<g>
				<path class="st7" d="M319.3,93.6l-13.7-7.4c0.7-1.5,1.8-2.8,3-3.8l13.7,7.4C321,90.8,320,92.1,319.3,93.6z"/>
			</g>
			<g>
				<path class="st7" d="M305.1,125l-13.7-7.4c-0.5-1.1-1.1-2.1-1.7-2.8l13.7,7.4C304,123,304.5,124,305.1,125z"/>
			</g>
			<g>
				<path class="st6" d="M275.1,147.6C275.1,147.6,275.1,147.6,275.1,147.6c0.1,0.1,0.1,0.1,0.2,0.1c0.1,0,0.1,0.1,0.2,0.1
					c4.4,2.4,8.8,4.8,13.3,7.2c-1.5,0.2-3.4,0.5-5.3,0.8c-4.6-2.5-9.1-5-13.7-7.4C271.7,148.1,273.6,147.8,275.1,147.6z"/>
			</g>
			<g>
				<polygon class="st7" points="324.4,80.2 310.8,72.7 334.8,69.3 348.5,76.8 				"/>
			</g>
			<g>
				<path class="st6" d="M319.5,89l-13.7-7.4c0.8,0.5,1.8,0.8,2.8,0.9l13.7,7.4C321.3,89.7,320.3,89.4,319.5,89z"/>
			</g>
			<g>
				<path class="st7" d="M301.8,120.7l-13.7-7.4c0.3-0.4,0.5-0.8,0.8-1.4l13.7,7.4C302.3,119.9,302,120.3,301.8,120.7z"/>
			</g>
			<g>
				<path class="st7" d="M303.4,122.2l-13.7-7.4c-0.5-0.6-1-1.1-1.6-1.5l13.7,7.4C302.4,121.1,302.8,121.6,303.4,122.2z"/>
			</g>
			<g>
				<path class="st6" d="M298.8,99.9c-0.3-1.5-0.8-2.9-1.4-4.3c4.6,2.5,9.1,5,13.7,7.4c0,0,0,0,0,0c-4.6-2.5-9.1-5-13.7-7.4
					c4.6,2.5,9.1,5,13.7,7.4c0.6,1.3,1.1,2.8,1.4,4.3C308.4,105.1,302.9,102.1,298.8,99.9z"/>
			</g>
			<g>
				<path class="st7" d="M319.5,89l-13.7-7.4c-0.4-0.2-0.8-0.5-1.1-0.7l13.7,7.4C318.7,88.5,319.1,88.7,319.5,89z"/>
			</g>
			<g>
				<polygon class="st4" points="289.1,134.3 275.4,126.9 275.4,126.8 289.1,134.2 				"/>
			</g>
			<g>
				<path class="st6" d="M312.1,91.7l-13.7-7.4c0.3-0.1,0.6-0.2,0.9-0.4c1.8-0.8,3.6-1.9,5.4-3.1l13.7,7.4c-1.8,1.3-3.6,2.3-5.4,3.1
					C312.7,91.5,312.4,91.6,312.1,91.7z"/>
			</g>
			<g>
				<polygon class="st4" points="288.9,134.3 275.3,126.9 275.4,126.9 289.1,134.3 				"/>
			</g>
			<g>
				<path class="st7" d="M302.6,119.3l-13.7-7.4c0.3-0.7,0.6-1.5,1-2.5c0.4-1,0.5-2.3,0.5-3.6c0-1.9-0.3-3.6-1-4.9l13.7,7.4
					c0.7,1.3,1,3,1,4.9c0,1.3-0.2,2.6-0.5,3.6C303.2,117.8,302.8,118.6,302.6,119.3z"/>
			</g>
			<g>
				<path class="st4" d="M278,121.8l13.7,7.4c0.7,0.4,0.9,1.2,0.9,1.9c0,1.3-0.4,2.7-3.5,3.1l-13.7-7.4c3-0.4,3.5-1.8,3.5-3.1
					C278.9,122.9,278.8,122.2,278,121.8z"/>
			</g>
			<g>
				<polygon class="st4" points="288.7,134.3 275.1,126.9 275.3,126.9 288.9,134.3 				"/>
			</g>
			<g>
				<polygon class="st4" points="288.6,134.4 274.9,126.9 275.1,126.9 288.7,134.3 				"/>
			</g>
			<g>
				<polygon class="st4" points="324.4,80.2 310.8,72.7 310.8,30.7 324.5,38.2 				"/>
			</g>
			<g>
				<path class="st7" d="M307.8,65.2c0.5-0.8,1-1.7,1.4-2.6l13.7,7.4c-0.4,0.9-0.9,1.8-1.4,2.6C317,70.2,312.4,67.7,307.8,65.2z"/>
			</g>
			<g>
				<polygon class="st7" points="322.9,70.1 309.3,62.7 309.4,62.4 323,69.9 				"/>
			</g>
			<g>
				<path class="st7" d="M307.8,65.2c4.6,2.5,9.1,5,13.7,7.4c-0.6,0.9-1.1,1.7-1.8,2.5c-4.6-2.5-9.1-5-13.7-7.4
					C306.7,66.9,307.3,66.1,307.8,65.2z"/>
			</g>
			<g>
				<path class="st7" d="M305.8,68c0.1-0.1,0.2-0.2,0.3-0.3c4.6,2.5,9.1,5,13.7,7.4c-0.1,0.1-0.2,0.2-0.3,0.3
					C314.9,73,310.4,70.5,305.8,68z"/>
			</g>
			<g>
				<path class="st7" d="M275.4,121.6c1.2-0.2,2.1-0.1,2.6,0.2l13.7,7.4c-0.5-0.3-1.3-0.4-2.6-0.2
					C285,126.8,279.5,123.8,275.4,121.6z"/>
			</g>
			<g>
				<polygon class="st7" points="288.9,129 275.3,121.6 275.4,121.6 289.1,129 				"/>
			</g>
			<g>
				<polygon class="st7" points="288.8,129.1 275.1,121.6 275.3,121.6 288.9,129 				"/>
			</g>
			<g>
				<path class="st7" d="M305.8,68c4.6,2.5,9.1,5,13.7,7.4c-1.2,1.4-2.4,2.7-3.8,3.9L302,71.9C303.4,70.8,304.6,69.4,305.8,68z"/>
			</g>
			<g>
				<polygon class="st7" points="288.6,134.4 274.9,126.9 274.9,121.6 288.6,129.1 				"/>
			</g>
			<g>
				<path class="st7" d="M289.1,129c3-0.4,3.5,0.9,3.5,2.1c0,1.3-0.4,2.7-3.5,3.1l0,0.1l-0.2,0l-0.2,0l-0.2,0l0-5.3l0.2,0l0.2,0
					L289.1,129z"/>
			</g>
			<g>
				<polygon class="st7" points="288.6,129.1 274.9,121.6 275.1,121.6 288.8,129.1 				"/>
			</g>
			<g>
				<polygon class="st4" points="339.1,36.1 325.4,28.7 340.1,26.6 353.8,34.1 				"/>
			</g>
			<g>
				<polygon class="st4" points="376.9,30.8 364.7,56.6 364.7,74.5 364.5,74.5 364.3,74.6 351.1,76.4 351.2,58.5 339.1,36.1 
					353.8,34.1 354,34 354.2,34 358.1,41.1 361.7,33 376.5,30.9 376.7,30.8 				"/>
			</g>
			<g>
				<polygon class="st4" points="338.4,36.2 324.7,28.8 324.9,28.8 338.6,36.2 				"/>
			</g>
			<g>
				<polygon class="st4" points="351.2,58.5 337.5,51.1 325.4,28.7 339.1,36.1 				"/>
			</g>
			<g>
				<polygon class="st4" points="338.2,36.3 324.6,28.8 324.7,28.8 338.4,36.2 				"/>
			</g>
			<g>
				<polygon class="st7" points="338.5,65.9 324.8,58.4 324.9,28.8 338.6,36.2 				"/>
			</g>
			<g>
				<path class="st6" d="M292,89.1c-0.5-0.3-1-0.6-1.5-0.9l13.7,7.4c0.5,0.3,1,0.6,1.5,0.9C301.2,94.1,296.6,91.6,292,89.1
					c4.6,2.5,9.1,5,13.7,7.4c2.3,1.6,4.2,3.8,5.4,6.5c-4.6-2.5-9.1-5-13.7-7.4C296.2,93,294.4,90.8,292,89.1z"/>
			</g>
			<g>
				<path class="st7" d="M290.6,88.2l13.7,7.4c-1.7-0.9-3.7-1.6-5.7-1.9c-2.5-0.4-5.1-0.4-7.7,0l-13.7-7.4c2.6-0.4,5.2-0.4,7.7,0
					C286.9,86.6,288.8,87.3,290.6,88.2z"/>
			</g>
			<g>
				<path class="st6" d="M305.7,96.6c-3.5-1.9-6.9-3.8-10.4-5.6C298.8,92.8,302.3,94.7,305.7,96.6C305.7,96.6,305.7,96.6,305.7,96.6
					z"/>
			</g>
			<g>
				<path class="st7" d="M285.9,97l13.7,7.4c0.3,0.2,0.6,0.3,0.8,0.5c1.2,0.8,2.1,1.9,2.7,3.3l-13.7-7.4c-0.6-1.4-1.6-2.5-2.7-3.3
					C286.4,97.3,286.2,97.2,285.9,97z"/>
			</g>
			<g>
				<polygon class="st7" points="275.4,147.4 261.7,139.9 277.8,137.6 291.5,145 				"/>
			</g>
			<g>
				<path class="st7" d="M310.6,82.5L297,75c1.8-0.8,3.5-1.9,5-3.1l13.7,7.4C314.1,80.6,312.4,81.7,310.6,82.5z"/>
			</g>
			<g>
				<path class="st6" d="M269.8,148.4C269.8,148.4,269.8,148.4,269.8,148.4c0.1,0.1,0.2,0.1,0.3,0.2c0.1,0.1,0.2,0.1,0.3,0.2
					c4.3,2.4,8.7,4.7,13,7.1c-0.1,0-0.1,0-0.2,0c-4,0.6-7.8,1.1-8,1.1c-1.8,0.2-3.4-0.1-4.8-0.8l-13.7-7.4c1.4,0.7,3,1.1,4.8,0.8
					c0.2,0,4-0.6,8-1.1C269.7,148.4,269.7,148.4,269.8,148.4z"/>
			</g>
			<g>
				<polygon class="st4" points="289,118.6 275.3,111.1 275.5,111.1 289.1,118.5 				"/>
			</g>
			<g>
				<polygon class="st4" points="288.8,118.6 275.1,111.2 275.3,111.1 289,118.6 				"/>
			</g>
			<g>
				<polygon class="st4" points="322.9,55.4 309.2,48 309.4,47.9 323.1,55.4 				"/>
			</g>
			<g>
				<polygon class="st7" points="323,69.9 309.4,62.4 309.4,47.9 323.1,55.4 				"/>
			</g>
			<g>
				<polygon class="st4" points="288.6,118.6 274.9,111.2 275.1,111.2 288.8,118.6 				"/>
			</g>
			<g>
				<polygon class="st7" points="289,114.7 275.3,107.3 275.5,107.3 289.1,114.7 				"/>
			</g>
			<g>
				<polygon class="st7" points="288.8,114.8 275.1,107.3 275.3,107.3 289,114.7 				"/>
			</g>
			<g>
				<path class="st4" d="M276.9,107.4l13.7,7.4c0.5,0.3,0.6,0.9,0.6,1.5c0,1.1-0.3,2-2,2.2l-13.7-7.4c1.8-0.2,2-1.2,2-2.2
					C277.5,108.3,277.4,107.7,276.9,107.4z"/>
			</g>
			<g>
				<path class="st7" d="M275.5,107.3c0.6-0.1,1.1,0,1.4,0.1l13.7,7.4c-0.3-0.2-0.8-0.2-1.4-0.1C285,112.5,279.6,109.5,275.5,107.3z
					"/>
			</g>
			<g>
				<polygon class="st7" points="288.6,114.8 274.9,107.3 275.1,107.3 288.8,114.8 				"/>
			</g>
			<g>
				<polygon class="st7" points="288.6,118.6 274.9,111.2 274.9,107.3 288.6,114.8 				"/>
			</g>
			<g>
				<path class="st4" d="M305.1,125c0.5,1.2,0.8,2.7,0.8,4.5c0,2-0.4,4-1,5.7c-0.7,1.7-1.7,3.3-2.9,4.7c-1.3,1.3-2.8,2.5-4.5,3.3
					c-1.8,0.9-3.7,1.4-5.9,1.7l-16.1,2.4l0.1-41.9l15.1-2.1l0.2,0c2-0.3,3.8-0.3,5.4,0c1.6,0.3,3,0.8,4.2,1.6
					c1.2,0.8,2.1,1.9,2.7,3.3c0.7,1.3,1,3,1,4.9c0,1.3-0.2,2.6-0.5,3.6c-0.4,1-0.7,1.8-1,2.5c-0.3,0.5-0.5,0.9-0.8,1.4
					c0.6,0.4,1.1,0.9,1.6,1.5C304,123,304.5,124,305.1,125z M289.1,134.2c3-0.4,3.5-1.8,3.5-3.1c0-1.2-0.4-2.5-3.5-2.1l-0.2,0
					l-0.2,0l-0.2,0l0,5.3l0.2,0l0.2,0L289.1,134.2L289.1,134.2 M288.6,114.8l0,3.8l0.2,0l0.2,0l0.2,0c1.8-0.2,2-1.2,2-2.2
					c0-1-0.3-1.9-2-1.6l-0.2,0l-0.2,0L288.6,114.8"/>
			</g>
			<g>
				<path class="st7" d="M289.1,114.7c1.8-0.2,2,0.7,2,1.6c0,1.1-0.3,2-2,2.2l-0.2,0l-0.2,0l-0.2,0l0-3.8l0.2,0l0.2,0L289.1,114.7z"
					/>
			</g>
			<g>
				<path class="st7" d="M291.4,76.5c1.9-0.3,3.7-0.8,5.6-1.5l13.7,7.4c-1.9,0.6-3.7,1.2-5.6,1.5C300.5,81.5,295.9,79,291.4,76.5z"
					/>
			</g>
			<g>
				<path class="st7" d="M291.4,76.5C291.4,76.5,291.4,76.5,291.4,76.5c4.6,2.5,9.1,5,13.7,7.4c0,0,0,0,0,0c0,0,0,0,0,0
					C300.5,81.5,295.9,79,291.4,76.5C291.4,76.5,291.4,76.5,291.4,76.5z"/>
			</g>
			<g>
				<path class="st7" d="M270.5,156.2l-13.7-7.4c-2.5-1.4-4.1-4.1-4.1-7.5l13.7,7.4C266.4,152,268,154.8,270.5,156.2z"/>
			</g>
			<g>
				<path class="st4" d="M285.9,97l13.7,7.4c-1-0.5-2.1-0.9-3.4-1.1c-1.6-0.3-3.4-0.3-5.4,0l-13.7-7.4c2-0.3,3.8-0.3,5.4,0
					C283.8,96.1,284.9,96.5,285.9,97z"/>
			</g>
			<g>
				<polygon class="st4" points="290.6,103.4 276.9,95.9 277.1,95.9 290.8,103.3 				"/>
			</g>
			<g>
				<polygon class="st7" points="307.1,67.5 293.4,60.1 295.7,59.8 309.3,67.2 				"/>
			</g>
			<g>
				<path class="st4" d="M308.3,68.1l-13.7-7.4c0.4-0.3,0.8-0.6,1.1-0.9l13.7,7.4C309.1,67.5,308.7,67.9,308.3,68.1z"/>
			</g>
			<g>
				<polygon class="st4" points="324.5,38.2 310.8,30.7 324.6,28.8 338.2,36.3 				"/>
			</g>
			<g>
				<polygon class="st4" points="338.6,36.2 338.5,65.9 348.5,64.5 348.7,64.5 348.7,76.7 348.5,76.8 324.4,80.2 324.5,38.2 
					338.2,36.3 338.4,36.2 				"/>
			</g>
			<g>
				<path class="st7" d="M283.4,75.9c2.5,0.8,5.2,1,7.9,0.6c4.6,2.5,9.1,5,13.7,7.4c-2.8,0.4-5.4,0.2-7.9-0.6
					C293,81.1,287.5,78.1,283.4,75.9z"/>
			</g>
			<g>
				<polygon class="st4" points="307.1,57.6 293.5,50.2 309.2,48 322.9,55.4 				"/>
			</g>
			<g>
				<polygon class="st7" points="310.3,56.2 296.7,48.8 304.3,35.9 318,43.3 				"/>
			</g>
			<g>
				<polygon class="st7" points="318,43.3 304.3,35.9 303.7,35.4 317.4,42.8 				"/>
			</g>
			<g>
				<path class="st4" d="M302.5,69.2l-13.7-7.4c0.8,0.3,1.8,0.3,2.7,0.2c1.1-0.1,2.2-0.6,3.1-1.3l13.7,7.4c-0.9,0.7-2.1,1.2-3.1,1.3
					C304.3,69.5,303.3,69.5,302.5,69.2z"/>
			</g>
			<g>
				<polygon class="st4" points="310.3,56.2 296.7,48.8 296,48.2 309.6,55.6 				"/>
			</g>
			<g>
				<path class="st4" d="M295.4,47.8l13.7,7.4c0.2,0.1,0.4,0.2,0.6,0.4L296,48.2C295.8,48.1,295.6,47.9,295.4,47.8z"/>
			</g>
			<g>
				<path class="st7" d="M283.4,75.9c0.2,0.1,0.5,0.3,0.8,0.4c0.8,0.5,1.7,0.9,2.5,1.4c0.9,0.5,1.8,1,2.7,1.4
					c2.6,1.4,5.2,2.8,7.7,4.2c-1.1-0.3-2.1-0.8-3.1-1.3l-13.7-7.4C281.4,75.1,282.4,75.6,283.4,75.9z"/>
			</g>
			<g>
				<path class="st4" d="M301.3,68.7l-13.7-7.4c0.4,0.2,0.8,0.4,1.2,0.5l13.7,7.4C302,69.1,301.6,68.9,301.3,68.7z"/>
			</g>
			<g>
				<path class="st6" d="M289.1,90.9l-13.7-7.4c1.4,0.8,2.9,1.4,4.4,1.8c3.6,1.1,7.4,1.4,11.3,0.9c2.2-0.3,4.4-0.9,7.3-1.9l13.7,7.4
					c-2.8,1-5.1,1.6-7.3,1.9c-4,0.6-7.8,0.3-11.3-0.9C292,92.2,290.5,91.6,289.1,90.9z"/>
			</g>
			<g>
				<path class="st7" d="M303.7,35.4c-0.4-0.4-1-0.8-1.6-1.1l13.7,7.4c0.6,0.3,1.1,0.7,1.6,1.1C313.3,40.6,307.5,38.1,303.7,35.4z"
					/>
			</g>
			<g>
				<polygon class="st4" points="307.1,67.5 293.4,60.1 293.5,50.2 307.1,57.6 				"/>
			</g>
			<g>
				<path class="st7" d="M301.3,68.7l-13.7-7.4c-0.4-0.2-0.7-0.4-1-0.7l13.7,7.4C300.6,68.3,300.9,68.5,301.3,68.7z"/>
			</g>
			<g>
				<path class="st7" d="M295.4,47.8l13.7,7.4c-0.5-0.3-1-0.4-1.6-0.5l-13.7-7.4C294.3,47.4,294.9,47.5,295.4,47.8z"/>
			</g>
			<g>
				<path class="st7" d="M289.1,90.9l-13.7-7.4c-1.1-0.6-2.2-1.3-3.2-2.1l13.7,7.4C286.9,89.5,288,90.3,289.1,90.9z"/>
			</g>
			<g>
				<path class="st6" d="M272.2,81.3c4.6,2.5,9.1,5,13.7,7.4c0,0,0,0,0,0c-0.1,0.2-0.3,0.3-0.4,0.5c-4.6-2.5-9.1-5-13.7-7.4
					C272,81.6,272.1,81.5,272.2,81.3z"/>
			</g>
			<g>
				<path class="st6" d="M271.8,81.8c4.6,2.5,9.1,5,13.7,7.4c-0.2,0.3-0.5,0.5-0.7,0.8l-13.7-7.4C271.4,82.3,271.6,82,271.8,81.8z"
					/>
			</g>
			<g>
				<path class="st7" d="M291,47.2c0.9-0.1,1.8-0.1,2.8,0.1l13.7,7.4c-1-0.1-1.9-0.2-2.8-0.1c-0.6,0.1-1.2,0.2-1.8,0.5
					c-4.6-2.5-9.1-5-13.7-7.4C289.8,47.4,290.4,47.3,291,47.2z"/>
			</g>
			<g>
				<polygon class="st4" points="275.5,105.5 261.8,98 276.9,95.9 290.6,103.4 				"/>
			</g>
			<g>
				<polygon class="st4" points="275.4,147.4 261.7,139.9 261.8,98 275.5,105.5 				"/>
			</g>
			<g>
				<path class="st7" d="M289.2,47.7c4.6,2.5,9.1,5,13.7,7.4c-0.3,0.1-0.6,0.3-0.8,0.4l-13.7-7.4C288.6,47.9,288.9,47.8,289.2,47.7z
					"/>
			</g>
			<g>
				<path class="st7" d="M300,57.4l-13.7-7.4c0.5-0.7,1.3-1.3,2.1-1.8l13.7,7.4C301.3,56,300.6,56.6,300,57.4z"/>
			</g>
			<g>
				<path class="st7" d="M300.3,68l-13.7-7.4c-0.7-0.6-1.1-1.4-1.5-2.2c-0.4-0.8-0.6-1.8-0.6-2.9c0-1.1,0.2-1.9,0.5-3
					c0.4-1,0.7-1.8,1.3-2.6l13.7,7.4c-0.6,0.8-1,1.6-1.3,2.6c-0.4,1-0.5,1.9-0.5,3c0,1.1,0.2,2.1,0.6,2.9
					C299.2,66.6,299.6,67.4,300.3,68z"/>
			</g>
			<g>
				<polygon class="st7" points="277.4,95.6 263.7,88.2 277.1,86.3 290.8,93.7 				"/>
			</g>
			<g>
				<path class="st6" d="M277.4,95.6l-13.7-7.4c2.7-1.4,5.3-3.4,7.4-5.6l13.7,7.4C282.7,92.2,280.2,94.2,277.4,95.6z"/>
			</g>
			<g>
				<path class="st6" d="M285.9,88.8c2.3,1.8,4.9,3.1,7.6,3.9c3.6,1.1,7.4,1.4,11.3,0.9c2.2-0.3,4.4-0.9,7.3-1.9
					c0.3-0.1,0.6-0.2,0.9-0.4c1.8-0.8,3.6-1.9,5.4-3.1c1.1,0.9,2.4,1.4,3.9,1.6c-1.2,1-2.2,2.3-3,3.8l-6.3,13.3l-0.5,0.3
					c-0.3-1.5-0.8-2.9-1.4-4.3c-1.2-2.6-3.1-4.8-5.4-6.5c-2.1-1.5-4.5-2.4-7.2-2.8c-2.5-0.4-5.1-0.4-7.7,0l-13.4,1.9
					c2.7-1.4,5.3-3.4,7.4-5.6C285.2,89.6,285.5,89.2,285.9,88.8z"/>
			</g>
			<g>
				<path class="st4" d="M302.1,34.3l13.7,7.4c-0.5-0.3-1.1-0.5-1.6-0.7c-1.1-0.4-2.4-0.7-4-1c-1.6-0.3-3.6-0.3-5.7,0l-13.7-7.4
					c2.1-0.3,4.1-0.3,5.7,0c1.6,0.3,2.9,0.5,4,1C301.1,33.8,301.6,34,302.1,34.3z"/>
			</g>
			<g>
				<path class="st7" d="M265.6,76c1.5-1.6,2.6-3.4,3.4-5.7l13.7,7.4c-0.8,2.2-1.9,4.1-3.4,5.7C275.1,81.2,269.7,78.2,265.6,76z"/>
			</g>
			<g>
				<path class="st7" d="M266.5,106.7l-13.7-7.4c0-3.3,1.6-6.5,4-8.6l13.7,7.4C268.1,100.2,266.5,103.4,266.5,106.7z"/>
			</g>
			<g>
				<path class="st4" d="M290.3,48.5L276.7,41c1.8-2.3,3.9-4.1,6.3-5.6c2.4-1.5,5.1-2.4,7.8-2.8l13.7,7.4c-2.8,0.4-5.4,1.3-7.8,2.8
					C294.3,44.4,292.1,46.2,290.3,48.5z"/>
			</g>
			<g>
				<path class="st4" d="M284.7,64.8L271,57.4c0-3.1,0.5-5.9,1.5-8.8c1-2.7,2.4-5.3,4.1-7.6l13.7,7.4c-1.7,2.3-3.1,4.9-4.1,7.6
					C285.2,58.9,284.7,61.7,284.7,64.8z"/>
			</g>
			<g>
				<polygon class="st4" points="283.7,43.9 270,36.5 270.2,36.5 283.8,43.9 				"/>
			</g>
			<g>
				<polygon class="st4" points="283.5,43.9 269.8,36.5 270,36.5 283.7,43.9 				"/>
			</g>
			<g>
				<polygon class="st7" points="283.8,70.3 270.1,62.9 270.2,36.5 283.8,43.9 				"/>
			</g>
			<g>
				<path class="st4" d="M294.1,82l-13.7-7.4c-1.2-0.7-2.4-1.5-3.4-2.4c-1.9-1.7-3.3-3.9-4.4-6.4c-1.1-2.4-1.6-5.3-1.6-8.4l13.7,7.4
					c0,3.1,0.5,6,1.6,8.4c1.1,2.5,2.5,4.7,4.4,6.4C291.7,80.6,292.8,81.4,294.1,82z"/>
			</g>
			<g>
				<path class="st7" d="M282.6,77.8L269,70.3c0.7-2.2,1.2-4.8,1.2-7.5l13.7,7.4C283.8,73,283.3,75.6,282.6,77.8z"/>
			</g>
			<g>
				<path class="st7" d="M274.1,87.2l-13.7-7.4c2-0.9,3.7-2.3,5.2-3.8l13.7,7.4C277.8,85,276,86.3,274.1,87.2z"/>
			</g>
			<g>
				<path class="st4" d="M304.5,40c2.1-0.3,4.1-0.3,5.7,0c1.6,0.3,2.9,0.5,4,1c1.2,0.5,2.4,1.1,3.2,1.8l0.6,0.5l-7.7,12.9l-0.7-0.6
					c-0.6-0.5-1.3-0.8-2.2-0.9c-1-0.1-1.9-0.2-2.8-0.1c-0.9,0.1-1.9,0.5-2.6,0.9c-0.8,0.5-1.5,1.1-2.1,1.8c-0.6,0.8-1,1.6-1.3,2.6
					c-0.4,1-0.5,1.9-0.5,3c0,1.1,0.2,2.1,0.6,2.9c0.4,0.8,0.8,1.6,1.5,2.2c0.6,0.6,1.3,1,2.2,1.2c0.8,0.3,1.8,0.3,2.7,0.2
					c1.1-0.1,2.2-0.6,3.1-1.3c0.4-0.3,0.8-0.6,1.1-0.9l-2.2,0.3l0-9.9l15.8-2.2l0.2,0l0,14.5l-0.1,0.2c-0.9,1.9-2,3.5-3.2,5.1
					c-1.3,1.5-2.6,3-4.1,4.2c-1.5,1.2-3.2,2.3-5,3.1c-1.9,0.6-3.7,1.2-5.6,1.5c-2.8,0.4-5.4,0.2-7.9-0.6c-2.4-0.7-4.6-2-6.5-3.7
					c-1.9-1.7-3.3-3.9-4.4-6.4c-1.1-2.4-1.6-5.3-1.6-8.4c0-3.1,0.5-5.9,1.5-8.8c1-2.7,2.4-5.3,4.1-7.6c1.8-2.3,3.9-4.1,6.3-5.6
					C299.1,41.4,301.7,40.4,304.5,40z"/>
			</g>
			<g>
				<path class="st6" d="M253.2,91.5c1.2-0.2,2.4-0.4,3.5-0.7l13.7,7.4c-1.2,0.3-2.4,0.6-3.5,0.7c-3,0.4-5.9,0.4-9.1-0.1
					c-4.6-2.5-9.1-5-13.7-7.4C247.3,91.9,250.3,91.9,253.2,91.5z"/>
			</g>
			<g>
				<path class="st6" d="M244.2,91.4c0.1,0,0.1,0.1,0.2,0.1c4.5,2.4,9,4.9,13.5,7.3c0,0-0.1,0-0.1,0l-13.7-7.4
					C244.1,91.4,244.1,91.4,244.2,91.4z"/>
			</g>
			<g>
				<path class="st6" d="M243.8,91.3c0.1,0,0.2,0,0.3,0l13.7,7.4c-0.1,0-0.2,0-0.3,0C252.9,96.3,248.4,93.8,243.8,91.3z"/>
			</g>
			<g>
				<path class="st7" d="M290.2,36.5L276.5,29c0.9-0.6,1.8-1.3,2.7-1.8c3.5-2.2,7.4-3.6,11.5-4.2c2.8-0.4,5.6-0.4,8.1,0
					c2.4,0.4,4.1,0.8,5.6,1.4l13.7,7.4c-1.5-0.6-3.2-1-5.6-1.4c-2.4-0.4-5.2-0.4-8.1,0c-4.1,0.6-7.9,2-11.5,4.2
					C291.9,35.2,291,35.8,290.2,36.5z"/>
			</g>
			<g>
				<path class="st7" d="M260.5,89.2l-13.7-7.4c2,0.3,4.2,0.4,6.6,0c2.4-0.3,4.6-1,6.9-2l13.7,7.4c-2.3,1-4.5,1.7-6.9,2
					C264.7,89.6,262.5,89.5,260.5,89.2z"/>
			</g>
			<g>
				<path class="st4" d="M265.6,75.4L252,68c0.4,0.2,1,0.3,1.7,0.2c1-0.1,1.7-0.5,2.1-1.2c0.4-0.6,0.7-1.5,0.7-2.8l13.7,7.4
					c0,1.2-0.3,2.1-0.7,2.8c-0.4,0.6-1.2,1-2.1,1.2C266.6,75.7,266,75.7,265.6,75.4z"/>
			</g>
			<g>
				<path class="st7" d="M252,68c-0.2-0.1-0.3-0.2-0.4-0.4l13.7,7.4c0.1,0.2,0.3,0.3,0.4,0.4C261.5,73.2,256.1,70.2,252,68z"/>
			</g>
			<g>
				<path class="st7" d="M246.9,81.8c0.3,0.1,0.5,0.3,0.8,0.4c4.3,2.3,8.6,4.7,12.9,7c-1.3-0.2-2.4-0.7-3.4-1.2l-13.7-7.4
					C244.4,81.1,245.6,81.6,246.9,81.8z"/>
			</g>
			<g>
				<path class="st7" d="M265.2,75l-13.7-7.4c-0.4-0.5-0.7-1.4-0.7-2.6l13.7,7.4C264.5,73.6,264.7,74.5,265.2,75z"/>
			</g>
			<g>
				<polygon class="st4" points="270.2,45.8 256.6,38.4 269.8,36.5 283.5,43.9 				"/>
			</g>
			<g>
				<polygon class="st4" points="270.2,71.7 256.5,64.2 256.6,38.4 270.2,45.8 				"/>
			</g>
			<g>
				<path class="st4" d="M257.1,88l-13.7-7.4c-0.6-0.3-1.2-0.7-1.7-1.1c-1.4-1.1-2.5-2.7-3.3-4.7c-0.8-2-1.1-4.3-1.1-7.1L251,75
					c0,2.9,0.3,5.1,1.1,7.1c0.8,2,1.9,3.6,3.3,4.7C255.9,87.3,256.5,87.7,257.1,88z"/>
			</g>
			<g>
				<polygon class="st4" points="264.4,46.6 250.7,39.2 250.9,39.2 264.5,46.6 				"/>
			</g>
			<g>
				<polygon class="st4" points="264.2,46.7 250.5,39.2 250.7,39.2 264.4,46.6 				"/>
			</g>
			<g>
				<polygon class="st7" points="264.5,72.5 250.8,65 250.9,39.2 264.5,46.6 				"/>
			</g>
			<g>
				<polygon class="st4" points="251,48.5 237.3,41.1 250.5,39.2 264.2,46.7 				"/>
			</g>
			<g>
				<polygon class="st4" points="251,75 237.3,67.6 237.3,41.1 251,48.5 				"/>
			</g>
			<g>
				<path class="st4" d="M283.8,43.9l0,26.4c0,2.7-0.5,5.3-1.2,7.5c-0.8,2.2-1.9,4.1-3.4,5.7c-1.4,1.5-3.2,2.9-5.2,3.8
					c-2.3,1-4.5,1.7-6.9,2c-2.4,0.3-4.6,0.3-6.6,0c-2-0.4-3.7-1.2-5.2-2.4c-1.4-1.1-2.5-2.7-3.3-4.7c-0.8-2-1.1-4.3-1.1-7.1l0-26.5
					l13.2-1.9l0.2,0l0.2,0l0,25.8c0,1.1,0.3,2.1,0.7,2.6c0.4,0.5,1.1,0.7,2.1,0.6c1-0.1,1.7-0.5,2.1-1.2c0.4-0.6,0.7-1.5,0.7-2.8
					l0-25.8l13.3-1.9l0.2,0L283.8,43.9z"/>
			</g>
			<g>
				<path class="st7" d="M384.2,85.3c0.8,1.4,1.2,3,1.2,4.7c0,1.6-0.4,3.2-1.1,4.8l-11.1,23.3l0,15.5c0,5.3-4,10.2-8.9,10.9
					l-13.5,1.9c-4.9,0.7-8.9-3-8.9-8.4l0-5.4l-0.9,0.7l-6.2,13.2c-0.1,0.2-0.2,0.4-0.3,0.6c-1.6,3-4.4,5.1-7.5,5.5
					c-3.3,0.5-6.2-1-7.8-3.9l-1.2-2.2l-4.9-9c-0.1,0.4-0.2,0.5-0.2,0.7c-1.2,2.9-2.9,5.6-4.9,8c-2.5,2.7-5.1,4.6-7.9,5.9
					c-3.3,1.7-6.5,2.2-8.6,2.5c-0.8,0.2-1.6,0.3-2.5,0.4c-1.5,0.2-3.6,0.5-5.6,0.8c-4,0.6-7.8,1.1-8,1.1c-4.9,0.7-8.9-3-8.9-8.4
					l0.1-41.9c0-3.3,1.6-6.5,4-8.6c-1.2,0.3-2.4,0.6-3.5,0.7c-3,0.4-6,0.4-8.9,0c-3.4-0.6-6.2-1.9-8.7-3.9c-2.4-1.9-4.3-4.6-5.7-8
					c-1.2-3.1-1.8-6.5-1.8-10.7l0-26.5c0-5.3,4-10.2,8.9-10.9l13.5-1.9c1-0.1,2-0.1,2.8,0.1c0.9-0.5,1.9-0.8,2.9-0.9l13.6-1.9
					c2.6-0.4,4.9,0.5,6.5,2.1c0.9-0.6,1.8-1.3,2.7-1.8c3.5-2.2,7.4-3.6,11.5-4.2c2.8-0.4,5.6-0.4,8.1,0c2.4,0.4,4.1,0.8,5.6,1.4
					c1.9-1.7,4-2.9,6.3-3.3l14.1-2l15.6-2.2c1.4-0.2,2.7,0,3.8,0.4c1.2-0.8,2.5-1.3,3.8-1.5l15-2.1c3.1-0.4,6,0.9,7.6,3.6
					c0.8,1.4,1.2,3,1.2,4.7c0,1.6-0.4,3.2-1.1,4.8l-11.1,23.5l0,15.4c0,4-2.2,7.7-5.4,9.6l8.6-1.2C379.7,81.2,382.6,82.6,384.2,85.3
					z M334.5,127.3l13.7-10.1l-13.7-6.1l-7.4-13.7l-7.6,15.9l-13.6,10l13.6,6.3l7.5,13.7L334.5,127.3 M286.2,56
					c-1,2.8-1.5,5.7-1.5,8.8c0,3.1,0.5,6,1.6,8.4c1.1,2.5,2.5,4.7,4.4,6.4c1.9,1.7,4.1,3,6.5,3.7c2.5,0.8,5.2,1,7.9,0.6
					c1.9-0.3,3.7-0.8,5.6-1.5c1.8-0.8,3.5-1.9,5-3.1c1.5-1.3,2.8-2.7,4.1-4.2c1.2-1.5,2.3-3.2,3.2-5.1l0.1-0.2l0-14.5l-0.2,0
					l-15.8,2.2l0,9.9l2.2-0.3c-0.3,0.3-0.6,0.7-1.1,0.9c-0.9,0.7-2.1,1.2-3.1,1.3c-0.9,0.1-1.9,0.1-2.7-0.2
					c-0.9-0.3-1.6-0.6-2.2-1.2c-0.7-0.6-1.1-1.4-1.5-2.2c-0.4-0.8-0.6-1.8-0.6-2.9c0-1.1,0.2-1.9,0.5-3c0.4-1,0.7-1.8,1.3-2.6
					c0.5-0.7,1.3-1.3,2.1-1.8c0.7-0.5,1.7-0.8,2.6-0.9c0.9-0.1,1.8-0.1,2.8,0.1c0.9,0.2,1.6,0.4,2.2,0.9l0.7,0.6l7.7-12.9l-0.6-0.5
					c-0.8-0.8-2-1.4-3.2-1.8c-1.1-0.4-2.4-0.7-4-1c-1.6-0.3-3.6-0.3-5.7,0c-2.8,0.4-5.4,1.3-7.8,2.8c-2.4,1.5-4.5,3.3-6.3,5.6
					C288.6,50.7,287.2,53.3,286.2,56 M353.8,34.1l-14.7,2.1l12.1,22.4l0,17.9l13.2-1.9l0.2,0l0.2,0l0-17.9l12.1-25.8l-0.2,0l-0.2,0
					L361.7,33l-3.7,8.1l-3.9-7l-0.2,0L353.8,34.1 M364.6,116.9l12.1-25.6l-0.2,0l-0.2,0l-14.8,2.1l-3.7,8.1l-3.9-7l-0.2,0l-0.2,0
					L339,96.6l12.1,22.2l0,18l13.2-1.9l0.2,0l0.2,0L364.6,116.9 M274.1,87.2c2-0.9,3.7-2.3,5.2-3.8c1.5-1.6,2.6-3.4,3.4-5.7
					c0.7-2.2,1.2-4.8,1.2-7.5l0-26.4l-0.2,0l-0.2,0l-13.3,1.9l0,25.8c0,1.2-0.3,2.1-0.7,2.8c-0.4,0.6-1.2,1-2.1,1.2
					c-1.1,0.1-1.8,0-2.1-0.6c-0.4-0.5-0.7-1.4-0.7-2.6l0-25.8l-0.2,0l-0.2,0L251,48.5l0,26.5c0,2.9,0.3,5.1,1.1,7.1
					c0.8,2,1.9,3.6,3.3,4.7c1.4,1.1,3.1,2,5.2,2.4c2,0.3,4.2,0.4,6.6,0C269.5,88.9,271.8,88.2,274.1,87.2 M304.8,135.3
					c0.6-1.7,1-3.7,1-5.7c0-1.8-0.3-3.3-0.8-4.5c-0.5-1.1-1.1-2.1-1.7-2.8c-0.5-0.6-1-1.1-1.6-1.5c0.3-0.4,0.5-0.8,0.8-1.4
					c0.3-0.7,0.6-1.5,1-2.5c0.4-1,0.5-2.3,0.5-3.6c0-1.9-0.3-3.6-1-4.9c-0.6-1.4-1.6-2.5-2.7-3.3c-1.2-0.8-2.6-1.4-4.2-1.6
					c-1.6-0.3-3.4-0.3-5.3,0l-0.3,0l-15.1,2.1l-0.1,41.9l16.1-2.4c2.1-0.3,4.1-0.8,5.9-1.7c1.8-0.8,3.3-2,4.5-3.3
					C303.2,138.6,304.1,137,304.8,135.3 M324.5,38.2l-0.1,42l24-3.4l0.2,0l0.1-12.3l-0.3,0l-10,1.4l0.1-29.7l-0.2,0l-0.2,0
					L324.5,38.2 M322.2,89.8c-1.5-0.2-2.8-0.7-3.9-1.6c-1.8,1.3-3.6,2.3-5.4,3.1c-0.3,0.1-0.6,0.3-0.9,0.4c-2.8,1-5.1,1.6-7.3,1.9
					c-4,0.6-7.8,0.3-11.3-0.9c-2.7-0.8-5.3-2.2-7.6-3.9c-0.3,0.4-0.7,0.8-1.1,1.2c-2.1,2.2-4.6,4.2-7.4,5.6l13.4-1.9
					c2.6-0.4,5.2-0.4,7.7,0c2.7,0.4,5.1,1.4,7.2,2.8c2.3,1.6,4.2,3.8,5.4,6.5c0.6,1.3,1.1,2.8,1.4,4.3l0.5-0.3l6.3-13.3
					C320,92.1,321,90.8,322.2,89.8 M335.4,88.2l-3.1,0.4c0.4,0.3,0.9,0.6,1.2,1C334.1,89.1,334.7,88.6,335.4,88.2 M358.1,85
					l-0.7,0.1c0.1,0,0.2,0.1,0.4,0.1C357.8,85.2,358,85.1,358.1,85"/>
			</g>
			<g>
				<path class="st8" d="M318,146.5l1.2,2.2c1.6,2.8,4.5,4.3,7.8,3.9c3.1-0.4,5.9-2.5,7.5-5.5c1.3,2.9,3.4,5.3,5.9,6.9
					c-3.3,4.6-8.2,7.7-13.4,8.5c-6.5,0.9-12.4-2-15.6-7.7c0.6-0.6,1.2-1.1,1.8-1.8c0.2-0.2,0.4-0.4,0.5-0.6
					C315.3,150.6,316.7,148.6,318,146.5z"/>
			</g>
			<g>
				<path class="st6" d="M370.7,17.4c-0.7-1.2-1.7-2.2-2.9-2.8l13.7,7.4c1.2,0.6,2.1,1.6,2.9,2.8C379.8,22.4,375.2,19.9,370.7,17.4
					C370.7,17.4,370.7,17.4,370.7,17.4z"/>
			</g>
			<g>
				<path class="st7" d="M367.8,14.6l13.7,7.4c-1.4-0.8-3-1.1-4.8-0.8L363,13.8C364.7,13.6,366.4,13.9,367.8,14.6z"/>
			</g>
			<g>
				<path class="st6" d="M372.4,5.9l13.7,7.4c-2.8-1.5-6.1-2.1-9.5-1.6l-13.7-7.4C366.3,3.7,369.6,4.3,372.4,5.9z"/>
			</g>
			<g>
				<polygon class="st7" points="361.7,23.4 348,15.9 363,13.8 376.7,21.2 				"/>
			</g>
			<g>
				<path class="st7" d="M357.8,24.8l-13.7-7.4c1.2-0.8,2.5-1.3,3.8-1.5l13.7,7.4C360.3,23.5,359,24.1,357.8,24.8z"/>
			</g>
			<g>
				<polygon class="st6" points="361.5,13.8 347.8,6.3 362.9,4.2 376.5,11.7 				"/>
			</g>
			<g>
				<path class="st7" d="M354,24.4L340.3,17c1.4-0.2,2.7,0,3.8,0.4l13.7,7.4C356.7,24.4,355.3,24.2,354,24.4z"/>
			</g>
			<g>
				<path class="st6" d="M357.7,14.8L344,7.3c1.2-0.5,2.5-0.8,3.8-1l13.7,7.4C360.2,14,358.9,14.3,357.7,14.8z"/>
			</g>
			<g>
				<path class="st6" d="M353.8,14.9l-13.7-7.4c1.3-0.2,2.6-0.2,3.8-0.1l13.7,7.4C356.4,14.6,355.1,14.7,353.8,14.9z"/>
			</g>
			<g>
				<polygon class="st7" points="338.4,26.6 324.7,19.2 340.3,17 354,24.4 				"/>
			</g>
			<g>
				<polygon class="st6" points="338.3,17 324.6,9.6 340.2,7.4 353.8,14.9 				"/>
			</g>
			<g>
				<polygon class="st7" points="324.4,28.6 310.7,21.2 324.7,19.2 338.4,26.6 				"/>
			</g>
			<g>
				<path class="st6" d="M265.6,165l-13.7-7.4c-5-2.7-8.3-8.2-8.3-15.1l13.7,7.4C257.3,156.7,260.6,162.3,265.6,165z"/>
			</g>
			<g>
				<path class="st7" d="M318,31.8l-13.7-7.4c1.9-1.7,4-2.9,6.3-3.3l13.7,7.4C322,28.9,319.9,30.2,318,31.8z"/>
			</g>
			<g>
				<polygon class="st6" points="324.3,19 310.6,11.6 324.6,9.6 338.3,17 				"/>
			</g>
			<g>
				<path class="st6" d="M317.5,21.4L303.8,14c2.1-1.2,4.4-2.1,6.8-2.4l13.7,7.4C321.9,19.3,319.6,20.2,317.5,21.4z"/>
			</g>
			<g>
				<polygon class="st7" points="266.4,148.6 252.7,141.2 252.8,99.3 266.5,106.7 				"/>
			</g>
			<g>
				<polygon class="st6" points="257.3,149.9 243.6,142.5 243.7,101.3 257.4,108.7 				"/>
			</g>
			<g>
				<path class="st6" d="M304.2,20.9l-13.7-7.4c3.7-0.5,7.2-0.5,10.5,0c1,0.2,2,0.3,2.9,0.5l13.7,7.4c-0.9-0.2-1.8-0.4-2.9-0.5
					C311.4,20.4,307.9,20.4,304.2,20.9z"/>
			</g>
			<g>
				<path class="st6" d="M276.5,29c-0.5-0.5-1.1-1-1.7-1.3l13.7,7.4c0.6,0.4,1.2,0.8,1.7,1.3C286.1,34.2,280.2,31.8,276.5,29z"/>
			</g>
			<g>
				<path class="st6" d="M243.8,91.3c0.1,0,0.1,0.1,0.2,0.1c0.2,0.1,0.4,0.2,0.5,0.3c0.2,0.1,0.5,0.2,0.7,0.4
					c4.1,2.2,8.2,4.5,12.3,6.7c-1.9-0.4-3.7-1-5.4-1.9l-13.7-7.4C240.1,90.3,241.9,90.9,243.8,91.3z"/>
			</g>
			<g>
				<path class="st6" d="M290.8,25.4L277.1,18c4.2-2.3,8.7-3.9,13.4-4.5l13.7,7.4C299.5,21.5,295,23.1,290.8,25.4z"/>
			</g>
			<g>
				<path class="st7" d="M274.8,27.7l13.7,7.4c-1.4-0.7-3-1.1-4.7-0.8L270,26.9C271.8,26.6,273.4,26.9,274.8,27.7z"/>
			</g>
			<g>
				<path class="st6" d="M283.5,24.7l-13.7-7.4c2.6-0.4,5-0.1,7.2,0.7l13.7,7.4C288.6,24.6,286.1,24.4,283.5,24.7z"/>
			</g>
			<g>
				<polygon class="st7" points="270.1,36.2 256.4,28.8 270,26.9 283.7,34.3 				"/>
			</g>
			<g>
				<path class="st7" d="M267.2,37.1l-13.7-7.4c0.9-0.5,1.9-0.8,2.9-0.9l13.7,7.4C269.1,36.4,268.1,36.7,267.2,37.1z"/>
			</g>
			<g>
				<path class="st7" d="M264.4,37l-13.7-7.4c1-0.1,2-0.1,2.8,0.1l13.7,7.4C266.3,36.9,265.4,36.9,264.4,37z"/>
			</g>
			<g>
				<polygon class="st6" points="269.9,26.6 256.2,19.2 269.9,17.3 283.5,24.7 				"/>
			</g>
			<g>
				<path class="st7" d="M252.1,96.8l-13.7-7.4c-1-0.5-1.9-1.1-2.8-1.8c-2.4-1.9-4.3-4.6-5.7-8c-1.2-3.1-1.8-6.5-1.8-10.7l13.7,7.4
					c0,4.2,0.6,7.6,1.8,10.7c1.3,3.4,3.2,6,5.7,8C250.2,95.7,251.1,96.3,252.1,96.8z"/>
			</g>
			<g>
				<path class="st6" d="M267.1,27.3l-13.7-7.4c0.9-0.3,1.9-0.5,2.8-0.6l13.7,7.4C268.9,26.8,268,27,267.1,27.3z"/>
			</g>
			<g>
				<path class="st6" d="M264.2,27.4L250.5,20c1-0.1,1.9-0.2,2.9-0.2l13.7,7.4C266.1,27.3,265.2,27.3,264.2,27.4z"/>
			</g>
			<g>
				<path class="st6" d="M247.2,105.6l-13.7-7.4c-1.4-0.7-2.7-1.6-3.9-2.6c-3.5-2.8-6.2-6.6-8-11.2c-1.7-4.2-2.5-8.8-2.5-14.2
					l13.7,7.4c0,5.4,0.8,10,2.5,14.2c1.9,4.7,4.6,8.4,8,11.2C244.5,104,245.8,104.9,247.2,105.6z"/>
			</g>
			<g>
				<polygon class="st7" points="250.8,38.9 237.2,31.5 250.7,29.6 264.4,37 				"/>
			</g>
			<g>
				<polygon class="st7" points="241.9,76.3 228.2,68.9 228.3,42.3 241.9,49.8 				"/>
			</g>
			<g>
				<polygon class="st6" points="250.7,29.3 237,21.9 250.5,20 264.2,27.4 				"/>
			</g>
			<g>
				<path class="st7" d="M241.9,49.8l-13.7-7.4c0-5.3,4-10.2,8.9-10.9l13.7,7.4C245.9,39.6,241.9,44.5,241.9,49.8z"/>
			</g>
			<g>
				<polygon class="st6" points="232.8,77.6 219.1,70.1 219.2,43.6 232.8,51.1 				"/>
			</g>
			<g>
				<path class="st6" d="M304.2,20.9c3.7-0.5,7.2-0.5,10.5,0c1,0.2,2,0.3,2.9,0.5c2.1-1.2,4.4-2.1,6.8-2.4l14-2l15.6-2.2
					c1.3-0.2,2.6-0.2,3.8-0.1c1.2-0.5,2.5-0.8,3.8-1l15-2.1c6.3-0.9,12.1,1.9,15.3,7.2c3.2,5.4,3.3,12.6,0.3,18.9l-10,21.2l0,13
					c4,1.1,7.4,3.6,9.6,7.3c3.2,5.4,3.3,12.6,0.3,19l-10,21l0,13.1c0,10.6-8,20.3-17.8,21.7l-13.5,1.9c-3.8,0.5-7.4-0.3-10.3-2.1
					c-2.5-1.6-4.6-3.9-5.9-6.9c0.1-0.2,0.2-0.4,0.3-0.6l6.2-13.2l0.9-0.7l0,5.4c0,5.3,4,9,8.9,8.4l13.5-1.9
					c4.9-0.7,8.9-5.5,8.9-10.9l0-15.5l11.1-23.3c0.7-1.5,1.1-3.2,1.1-4.8c0-1.7-0.4-3.3-1.2-4.7c-1.6-2.7-4.5-4.1-7.6-3.6l-8.6,1.2
					c3.2-1.9,5.4-5.6,5.4-9.6l0-15.4l11.1-23.5c0.7-1.5,1.1-3.2,1.1-4.8c0-1.7-0.4-3.3-1.2-4.7c-1.6-2.7-4.5-4.1-7.6-3.6l-15,2.1
					c-1.3,0.2-2.7,0.7-3.8,1.5c-1.2-0.4-2.5-0.6-3.8-0.4l-15,2.1l-14.6,2.1c-2.3,0.3-4.4,1.6-6,3.4c-1.8-0.7-3.6-1.2-5.9-1.6
					c-2.4-0.4-5.2-0.4-8.1,0c-4.1,0.6-7.9,2-11.5,4.2c-0.9,0.6-1.9,1.2-2.7,1.8c-1.6-1.6-3.9-2.5-6.5-2.1l-13.6,1.9
					c-1,0.1-2,0.4-2.9,0.9c-0.9-0.2-1.8-0.2-2.8-0.1l-13.5,1.9c-4.9,0.7-8.9,5.5-8.9,10.9l0,26.5c0,4.2,0.6,7.6,1.8,10.7
					c1.3,3.4,3.2,6,5.7,8c2.4,2,5.3,3.3,8.4,3.9c3.2,0.5,6.2,0.5,9.2,0.1c1.2-0.2,2.4-0.4,3.5-0.7c-2.4,2.1-4,5.2-4,8.6l-0.1,41.9
					c0,5.3,4,9,8.9,8.4c0.2,0,4-0.6,8-1.1c2-0.3,4.1-0.6,5.6-0.8c0.9-0.1,1.7-0.3,2.5-0.4c2.1-0.3,5.4-0.9,8.6-2.5
					c2.8-1.3,5.3-3.2,7.6-5.6c2.3-2.7,4-5.4,5.2-8.3l5.2,8.3c-1.2,2.1-2.7,4-4.3,5.9c-0.2,0.2-0.3,0.4-0.5,0.6
					c-0.6,0.6-1.2,1.2-1.8,1.8c-2.7,2.5-5.7,4.6-8.9,6.1c-4.5,2.2-8.6,3-11.4,3.4c-0.8,0.2-1.7,0.3-2.4,0.4
					c-1.5,0.2-3.6,0.5-5.6,0.8c-4,0.6-7.9,1.1-8.1,1.2c-9.8,1.4-17.8-6.1-17.8-16.7l0.1-41.2c-0.6-0.1-1.3-0.1-1.9-0.2
					c-0.2,0-0.3-0.1-0.5-0.1c-4.4-0.8-8.3-2.6-11.7-5.4c-3.5-2.8-6.2-6.6-8-11.2c-1.7-4.2-2.5-8.8-2.5-14.2l0-26.5
					c0-10.6,8-20.3,17.8-21.7l13.5-1.9c1-0.1,1.9-0.2,2.9-0.2c0.9-0.3,1.9-0.5,2.8-0.6l13.6-1.9c2.6-0.4,5-0.1,7.2,0.7
					C295,23.1,299.5,21.5,304.2,20.9z"/>
			</g>
			<g>
				<path class="st6" d="M232.8,51.1l-13.7-7.4c0-10.6,8-20.3,17.8-21.7l13.7,7.4C240.8,30.7,232.9,40.5,232.8,51.1z"/>
			</g>
		</g>
	</g>
</g>
</svg>
